HIERARCHY
ROOT Hips
{
	OFFSET 0.00000 0.00000 0.00000
	CHANNELS 6 Xposition Yposition Zposition Yrotation Zrotation Xrotation 
	JOINT Lumbar
	{
		OFFSET 0 0 0
		CHANNELS 3 Zrotation Xrotation Yrotation
		JOINT Neck
		{
			OFFSET 0.00 0.2701 0.00
			CHANNELS 3 Zrotation Xrotation Yrotation
			End Site
			{
				OFFSET 0.00 0.1379 0.00
			}
		}
		JOINT RightShoulder
		{
			OFFSET 0.0119 0.2289 0.1181
			CHANNELS 3 Zrotation Xrotation Yrotation
			JOINT RightElbow
			{
				OFFSET 0.00 -0.1475 0.00
				CHANNELS 2 Zrotation Yrotation
				JOINT RightWrist
				{
					OFFSET 0.00 -0.1605 0.00
					CHANNELS 2 Zrotation Xrotation
					End Site
					{
						OFFSET 0.0040 -0.1068 0.0006
					}
				}
			}
		}
		JOINT LeftShoulder
		{
			OFFSET 0.0119 0.2289 -0.1181
			CHANNELS 3 Zrotation Xrotation Yrotation
			JOINT LeftElbow
			{
				OFFSET 0.00 -0.1475 0.00
				CHANNELS 2 Zrotation Yrotation
				JOINT LeftWrist
				{
					OFFSET 0.00 -0.1605 0.00
					CHANNELS 2 Zrotation Xrotation
					End Site
					{
						OFFSET 0.0040 -0.1068 -0.0006
					}
				}
			}
		}
	}
	JOINT RightHip
	{
		OFFSET 0.0316 -0.0424 0.0458
		CHANNELS 3 Zrotation Xrotation Yrotation
		JOINT RightKnee
		{
			OFFSET 0.00 -0.2438 0.00
			CHANNELS 1 Zrotation
			JOINT RightAnkle
			{
				OFFSET 0.00 -0.2449 0.00
				CHANNELS 3 Zrotation Xrotation Yrotation
				End Site
				{
					OFFSET 0.1237 -0.0542 0.0051
				}
			}
		}
	}
	JOINT LeftHip
	{
		OFFSET 0.0316 -0.0424 -0.0458
		CHANNELS 3 Zrotation Xrotation Yrotation
		JOINT LeftKnee
		{
			OFFSET 0.00 -0.2438 0.00
			CHANNELS 1 Zrotation
			JOINT LeftAnkle
			{
				OFFSET 0.00 -0.2449 0.00
				CHANNELS 3 Zrotation Xrotation Yrotation
				End Site
				{
					OFFSET 0.1237 -0.0542 -0.0051
				}
			}
		}
	}
}
MOTION
Frames: 32
Frame Time: 0.02
0 0.57926 0 173.12674 0 2.55672 6.13834 -1.87468 -0.91541 -25.51922 5.24294 4.12627 20.8836 -19.07813 -12.79572 9.32662 79.09777 0.1493 3.3228 19.43907 2.16089 -4.8535 7.55502 -77.55699 -5.52564 0.14022 7.17352 3.98105 20.86835 -25.00197 11.2073 -8.89127 -12.20578 3.29378 -4.6045 -2.4909 -19.16411 9.67135 7.75252 12.46112
0.00022 0.57925 -7e-05 173.18796 0 2.57775 6.18442 -1.91146 -0.95171 -25.74175 5.24373 4.06335 20.8598 -18.89128 -12.71956 9.41626 79.26521 0.23488 3.21977 19.55848 2.17389 -4.82568 7.59413 -77.55426 -5.53975 0.09793 7.24584 3.97217 20.83181 -25.19961 11.61854 -9.28704 -12.1926 3.34692 -4.63622 -2.64508 -19.2205 9.67825 7.77869 12.55167
0.00043 0.57924 -0.00014 173.24944 0 2.59849 6.23149 -1.94783 -0.98879 -25.96555 5.24414 4.00128 20.83727 -18.70537 -12.64568 9.50438 79.43289 0.32006 3.11808 19.67929 2.18687 -4.79765 7.6327 -77.5509 -5.55377 0.05572 7.31694 3.96328 20.79435 -25.3958 12.0288 -9.68321 -12.18048 3.39933 -4.66757 -2.79857 -19.27647 9.68528 7.80475 12.64141
0.00063 0.57923 -0.00022 173.31243 0 2.61813 6.28192 -1.98278 -1.02667 -26.19347 5.24412 3.93893 20.81819 -18.52056 -12.57984 9.58739 79.60331 0.40458 3.01998 19.804 2.20067 -4.76958 7.66944 -77.54541 -5.56756 0.01297 7.38403 3.95415 20.75266 -25.58731 12.43914 -10.08427 -12.1712 3.44971 -4.69755 -2.95017 -19.33116 9.69254 7.83045 12.72847
0.00092 0.57922 -0.00028 173.36727 0 2.64346 6.31328 -2.02506 -1.05711 -26.39569 5.24763 3.87437 20.77909 -18.3289 -12.47103 9.69756 79.75942 0.49271 2.90189 19.90454 2.21107 -4.74302 7.7158 -77.55172 -5.58255 -0.02747 7.47256 3.94613 20.7332 -25.80263 12.849 -10.45875 -12.14533 3.51132 -4.73454 -3.11104 -19.39243 9.69814 7.85784 12.82932
0.00101 0.57922 -0.00036 173.43941 0 2.65682 6.38578 -2.05194 -1.10541 -26.65471 5.24284 3.81703 20.78358 -18.15264 -12.45346 9.75009 79.94551 0.57302 2.82685 20.05848 2.22801 -4.71242 7.74184 -77.53269 -5.59503 -0.07237 7.51552 3.93589 20.66684 -25.96804 13.25952 -10.88952 -12.15563 3.5488 -4.75681 -3.25263 -19.43987 9.70752 7.88177 12.90118
0.00055 0.57926 -0.00045 173.56237 0 2.63554 6.57139 -2.03424 -1.1875 -27.06259 5.22135 3.75754 20.90381 -18.00948 -12.69402 9.64005 80.22357 0.63412 2.86765 20.3507 2.2695 -4.67704 7.70975 -77.4437 -5.60031 -0.13465 7.43044 3.91785 20.4624 -25.98959 13.68306 -11.48988 -12.26066 3.52103 -4.73644 -3.33888 -19.448 9.72593 7.89536 12.88981
-0.00012 0.57932 -0.00055 173.70249 0 2.60246 6.79896 -2.00137 -1.29002 -27.53046 5.19044 3.70901 21.06967 -17.88343 -13.0254 9.47247 80.53033 0.68707 2.95246 20.69955 2.31643 -4.63663 7.6575 -77.32896 -5.60312 -0.2006 7.29969 3.89775 20.21132 -25.962 14.10566 -12.14515 -12.40311 3.46868 -4.70159 -3.40623 -19.4426 9.74852 7.90569 12.84974
-0.00071 0.57937 -0.00064 173.83279 0 2.57576 7.00775 -1.97673 -1.39415 -27.9757 5.15959 3.67021 21.21704 -17.75556 -13.31209 9.33306 80.81857 0.74208 3.01923 21.0279 2.35672 -4.59401 7.61572 -77.22594 -5.60726 -0.26159 7.19111 3.8798 19.98771 -25.96064 14.52197 -12.76686 -12.53209 3.42654 -4.67458 -3.4836 -19.44382 9.77007 7.91796 12.82483
-0.00125 0.57943 -0.00073 173.97115 0 2.54472 7.21478 -1.94637 -1.45458 -28.39839 5.14599 3.57069 21.35231 -17.60265 -13.61493 9.18447 81.13066 0.80349 3.07795 21.33115 2.41463 -4.5693 7.56834 -77.12309 -5.61057 -0.3363 7.07648 3.85718 19.74025 -25.94229 14.96665 -13.42475 -12.64671 3.3882 -4.64212 -3.55458 -19.44207 9.78769 7.92803 12.79098
-0.00193 0.57946 -0.00083 174.0974 0 2.51998 7.43607 -1.92442 -1.60802 -28.88597 5.09492 3.59855 21.52686 -17.50585 -13.90348 9.04214 81.39893 0.85028 3.16361 21.70383 2.43707 -4.50741 7.52792 -77.01348 -5.61496 -0.38351 6.9637 3.84322 19.52811 -25.94831 15.35192 -14.02041 -12.79939 3.33644 -4.61773 -3.63477 -19.44453 9.81484 7.94225 12.76894
-0.0029 0.57943 -0.00095 174.18067 0 2.51495 7.68126 -1.92828 -2.03766 -29.5087 4.93589 3.98959 21.77478 -17.5602 -14.15814 8.92316 81.54341 0.85093 3.31555 22.22485 2.36152 -4.33146 7.51077 -76.89447 -5.62303 -0.35236 6.86589 3.8586 19.4535 -26.02728 15.57285 -14.42771 -13.05403 3.25039 -4.61788 -3.74123 -19.45075 9.86435 7.96568 12.78637
-0.00399 0.57936 -0.00108 174.252 0 2.51675 7.9404 -1.94113 -2.55562 -30.20143 4.74018 4.50554 22.06762 -17.66997 -14.39595 8.81325 81.63924 0.83707 3.49274 22.82052 2.25032 -4.11976 7.5014 -76.76926 -5.63207 -0.29381 6.77153 3.88185 19.41117 -26.13299 15.73309 -14.76924 -13.34423 3.152 -4.62684 -3.85801 -19.46331 9.92384 7.99396 12.81663
-0.00505 0.57931 -0.00121 174.33252 0 2.51585 8.19648 -1.95086 -3.01718 -30.87978 4.56642 4.95538 22.35238 -17.75457 -14.61582 8.70534 81.75812 0.83683 3.65646 23.39987 2.15398 -3.93379 7.48914 -76.64463 -5.64078 -0.24867 6.67677 3.89826 19.33471 -26.23152 15.92279 -15.14522 -13.61465 3.06176 -4.63268 -3.97293 -19.48084 9.9807 8.02201 12.84118
-0.00604 0.57927 -0.00133 174.39843 0 2.51298 8.43989 -1.95684 -3.54818 -31.4814 4.37234 5.44615 22.57639 -17.84124 -14.9229 8.57246 81.88545 0.81283 3.82954 23.90191 2.06153 -3.71112 7.47378 -76.52748 -5.64959 -0.19913 6.57647 3.92833 19.33687 -26.31017 16.10877 -15.51138 -13.90305 2.96114 -4.6345 -4.07649 -19.46655 10.02973 8.04161 12.86446
-0.0072 0.57919 -0.00147 174.49084 0 2.51582 8.71279 -1.97188 -3.95518 -32.26524 4.20909 5.87979 22.94991 -17.93463 -15.07327 8.49085 81.96893 0.82722 3.98925 24.58815 1.95491 -3.55206 7.4666 -76.39493 -5.65763 -0.15282 6.48788 3.93189 19.18596 -26.43368 16.28276 -15.87222 -14.16018 2.87802 -4.64672 -4.20481 -19.51795 10.09729 8.07997 12.89349
-0.0088 0.57904 -0.00164 174.66528 0 2.53415 9.05752 -2.01905 -3.99821 -33.46973 4.16682 6.1381 23.60933 -18.05222 -14.52289 8.58198 82.07122 1.02066 4.09921 25.70378 1.79533 -3.6168 7.48395 -76.21018 -5.67076 -0.11632 6.44303 3.86045 18.58493 -26.7065 16.48502 -16.3169 -14.33699 2.85987 -4.68758 -4.41155 -19.76888 10.21399 8.16919 12.93833
-0.01058 0.57885 -0.00183 174.86452 0 2.55772 9.43018 -2.07326 -3.91312 -34.86076 4.1531 6.3328 24.43522 -18.173 -13.85603 8.71975 82.11089 1.24239 4.19553 27.00776 1.62603 -3.74065 7.50895 -76.01238 -5.68194 -0.0848 6.40879 3.76229 17.83348 -27.0189 16.66934 -16.74418 -14.47793 2.85779 -4.73822 -4.63977 -20.08221 10.34866 8.27694 12.98815
-0.01231 0.57868 -0.002 175.04983 0 2.57816 9.79668 -2.11839 -3.88679 -36.21695 4.10716 6.5472 25.26568 -18.2771 -13.4329 8.81288 82.09023 1.40296 4.30264 28.27229 1.47702 -3.81006 7.52764 -75.82799 -5.68882 -0.05516 6.36059 3.67602 17.16281 -27.29108 16.83045 -17.12339 -14.62574 2.83892 -4.78315 -4.85105 -20.35397 10.47506 8.37629 13.03376
-0.01394 0.57851 -0.0022 175.25045 0 2.60231 10.14517 -2.18917 -3.86201 -37.39073 4.13616 6.8021 25.775 -18.43921 -12.2437 8.99991 82.42685 1.75837 4.39262 29.36745 1.26325 -3.9897 7.55731 -75.61172 -5.71663 -0.00826 6.34691 3.59012 16.43724 -27.65359 17.1189 -17.73116 -14.81556 2.85771 -4.83396 -5.09639 -20.68123 10.60315 8.4764 13.08779
-0.01579 0.57833 -0.00235 175.41958 0 2.61951 10.52628 -2.20745 -3.80154 -38.95533 4.02262 6.95934 26.97214 -18.49086 -12.57254 9.00905 82.025 1.72561 4.513 30.83049 1.17812 -3.96049 7.56739 -75.45891 -5.70164 0.00265 6.26904 3.49822 15.79436 -27.84255 17.14232 -17.86652 -14.90772 2.80447 -4.87444 -5.2715 -20.90825 10.73076 8.5784 13.12556
-0.01844 0.57811 -0.0024 175.54344 0 2.62018 11.08653 -2.08576 -3.68049 -41.83113 3.45576 6.83099 30.20119 -18.1472 -17.55283 8.4582 79.42771 0.52089 4.73618 33.50804 1.48911 -3.2887 7.50794 -75.48456 -5.55798 -0.0976 5.96804 3.38577 15.37785 -27.49756 16.40701 -16.64106 -14.74744 2.52749 -4.88699 -5.28344 -20.83706 10.86189 8.68854 13.11463
-0.02125 0.57787 -0.0024 175.62555 0 2.61337 11.65999 -1.91074 -3.52605 -45.04137 2.75521 6.61092 34.08512 -17.70813 -23.98505 7.73767 76.12152 -1.05858 4.98818 36.50298 1.92314 -2.41596 7.431 -75.57484 -5.37331 -0.23164 5.61126 3.26999 15.05653 -26.98658 15.41176 -14.95171 -14.4875 2.18125 -4.88859 -5.217 -20.66344 10.9901 8.79847 13.08745
-0.02384 0.57765 -0.0024 175.69595 0 2.6068 12.16533 -1.75437 -3.38234 -47.91634 2.14975 6.45394 37.55404 -17.37194 -29.46915 7.13201 73.25282 -2.40455 5.21568 39.19204 2.27547 -1.6672 7.37091 -75.63519 -5.21465 -0.34174 5.30692 3.16279 14.71727 -26.57876 14.55634 -13.51568 -14.26852 1.88077 -4.89275 -5.16305 -20.5414 11.11362 8.90366 13.06947
-0.0271 0.57737 -0.0025 175.89813 0 2.6119 12.93672 -1.61756 -3.25382 -51.57259 1.39741 6.20801 41.52029 -16.78701 -36.16381 6.3674 69.89562 -4.0139 5.48762 42.57114 2.73532 -0.77644 7.27352 -75.69629 -5.02501 -0.48803 4.88394 3.02546 14.26709 -26.04807 13.60864 -11.90243 -14.07003 1.52138 -4.90594 -5.20834 -20.40247 11.26337 9.03019 13.04446
-0.02899 0.57723 -0.00237 175.81388 0 2.59318 13.1532 -1.43262 -3.08633 -53.67738 0.9225 6.1219 44.60924 -16.69444 -40.68641 5.89445 67.3876 -5.16706 5.67805 44.58465 3.0018 -0.1407 7.24956 -75.77279 -4.88991 -0.56716 4.70052 2.94963 14.07101 -25.7424 12.79169 -10.54476 -13.80133 1.267 -4.89947 -5.027 -20.27085 11.3573 9.11166 13.0296
-0.02712 0.57748 -0.00163 174.96357 0 2.49032 11.86548 -1.08119 -2.82861 -51.42738 1.21372 6.53798 45.07101 -18.00835 -38.83196 6.25512 67.40429 -4.9428 5.60125 42.7619 2.69484 -0.18872 7.43235 -75.86316 -4.91832 -0.45043 5.14191 3.05149 14.56591 -26.02072 12.39968 -10.03929 -13.40281 1.32801 -4.82522 -4.24778 -20.208 11.30027 9.07147 13.0517
-0.02386 0.57787 -0.00067 173.82389 0 2.36732 10.01412 -0.69139 -2.53157 -47.60432 1.79324 7.11103 44.63615 -19.81477 -34.74887 6.91704 68.29818 -4.25168 5.44764 39.55344 2.19172 -0.51071 7.68936 -75.96888 -5.00285 -0.26536 5.83519 3.21417 15.31083 -26.54507 12.14859 -9.80221 -12.93167 1.49526 -4.73441 -3.24161 -20.15164 11.18678 8.98548 13.08361
-0.02119 0.57819 0.0002 172.8066 0 2.26697 8.39855 -0.35023 -2.24734 -44.48952 2.26397 7.58752 44.63827 -21.38254 -31.69951 7.45 68.78791 -3.79125 5.35275 36.96683 1.78345 -0.75554 7.91295 -76.07655 -5.05939 -0.11292 6.44674 3.34445 15.93477 -27.00841 11.83246 -9.41916 -12.46557 1.60846 -4.66194 -2.3333 -20.07619 11.09726 8.91842 13.10778
-0.01867 0.57854 0.00105 171.82514 0 2.11004 6.8643 0.12276 -1.98391 -41.40265 2.64233 8.1679 44.533 -23.01713 -28.60291 7.94512 69.28028 -3.26492 5.15994 34.41324 1.35168 -0.80298 8.13589 -76.15035 -5.12361 0.04511 6.92011 3.49461 16.59632 -27.25371 11.51014 -9.11617 -12.10648 1.7443 -4.54401 -1.44392 -20.06413 11.01415 8.85879 13.14533
-0.01553 0.57885 0.00198 170.70238 0 2.06545 5.03308 0.33176 -1.66741 -37.89448 3.27561 8.56955 44.43722 -24.62129 -25.06854 8.59082 69.97951 -2.76106 5.15047 31.47209 0.92534 -1.31737 8.37645 -76.29553 -5.18742 0.20798 7.73932 3.61795 17.23353 -28.01098 11.23923 -8.72256 -11.51804 1.85824 -4.51626 -0.46305 -19.92445 10.90511 8.77348 13.15747
-0.01081 0.57898 0.00309 169.24813 0 2.3426 2.46453 -0.21613 -1.22244 -33.47826 4.60948 8.44761 44.51937 -26.10321 -20.75975 9.59615 71.07515 -2.42509 5.68258 27.67313 0.52015 -3.15508 8.66143 -76.65073 -5.22136 0.36906 9.47265 3.6517 17.7781 -30.14322 11.0626 -7.96078 -10.23306 1.89323 -4.74719 0.72091 -19.41826 10.73159 8.62268 13.09789
